{
	"asset":{
		"generator":"Khronos glTF Blender I/O v4.4.56",
		"version":"2.0"
	},
	"extensionsUsed":[
		"KHR_materials_specular",
		"KHR_materials_ior"
	],
	"scene":0,
	"scenes":[
		{
			"name":"Scene",
			"nodes":[
				0,
				1
			]
		}
	],
	"nodes":[
		{
			"mesh":0,
			"name":"Television_01"
		},
		{
			"mesh":1,
			"name":"Screen"
		}
	],
	"materials":[
		{
			"doubleSided":true,
			"extensions":{
				"KHR_materials_specular":{
					"specularColorFactor":[
						2.0,
						2.0,
						2.0
					]
				},
				"KHR_materials_ior":{
					"ior":1.4500000476837158
				}
			},
			"name":"Television_01",
			"normalTexture":{
				"index":0
			},
			"pbrMetallicRoughness":{
				"baseColorTexture":{
					"index":1
				},
				"metallicRoughnessTexture":{
					"index":2
				}
			}
		}
	],
	"meshes":[
		{
			"name":"Cube.021",
			"primitives":[
				{
					"attributes":{
						"POSITION":0,
						"NORMAL":1,
						"TEXCOORD_0":2,
						"COLOR_0":3,
						"COLOR_1":4
					},
					"indices":5,
					"material":0
				}
			]
		},
		{
			"name":"Cube.001",
			"primitives":[
				{
					"attributes":{
						"POSITION":6,
						"NORMAL":7,
						"TEXCOORD_0":8,
						"COLOR_0":9,
						"COLOR_1":10
					},
					"indices":11,
					"material":0
				}
			]
		}
	],
	"textures":[
		{
			"sampler":0,
			"source":0
		},
		{
			"sampler":0,
			"source":1
		},
		{
			"sampler":0,
			"source":2
		}
	],
	"images":[
		{
			"mimeType":"image/png",
			"name":"Television_01_nor_gl",
			"uri":"textures/Television_01_nor_gl.png"
		},
		{
			"mimeType":"image/jpeg",
			"name":"Television_01_diff_4k",
			"uri":"textures/Television_01_diff_4k.jpg"
		},
		{
			"mimeType":"image/png",
			"name":"Television_01_metallic-Television_01_roughness",
			"uri":"textures/Television_01_metallic-Television_01_roughness.png"
		}
	],
	"accessors":[
		{
			"bufferView":0,
			"componentType":5126,
			"count":1876,
			"max":[
				0.29999998211860657,
				0.4568334221839905,
				0.21244415640830994
			],
			"min":[
				-0.29999998211860657,
				-1.5506739146076143e-05,
				-0.25836652517318726
			],
			"type":"VEC3"
		},
		{
			"bufferView":1,
			"componentType":5126,
			"count":1876,
			"type":"VEC3"
		},
		{
			"bufferView":2,
			"componentType":5126,
			"count":1876,
			"type":"VEC2"
		},
		{
			"bufferView":3,
			"componentType":5121,
			"count":1876,
			"normalized":true,
			"type":"VEC4"
		},
		{
			"bufferView":4,
			"componentType":5123,
			"count":1876,
			"normalized":true,
			"type":"VEC4"
		},
		{
			"bufferView":5,
			"componentType":5123,
			"count":5268,
			"type":"SCALAR"
		},
		{
			"bufferView":6,
			"componentType":5126,
			"count":100,
			"max":[
				0.12633192539215088,
				0.40423285961151123,
				0.19235940277576447
			],
			"min":[
				-0.25713521242141724,
				0.11414705216884613,
				0.1682196855545044
			],
			"type":"VEC3"
		},
		{
			"bufferView":7,
			"componentType":5126,
			"count":100,
			"type":"VEC3"
		},
		{
			"bufferView":8,
			"componentType":5126,
			"count":100,
			"type":"VEC2"
		},
		{
			"bufferView":9,
			"componentType":5121,
			"count":100,
			"normalized":true,
			"type":"VEC4"
		},
		{
			"bufferView":10,
			"componentType":5123,
			"count":100,
			"normalized":true,
			"type":"VEC4"
		},
		{
			"bufferView":11,
			"componentType":5123,
			"count":486,
			"type":"SCALAR"
		}
	],
	"bufferViews":[
		{
			"buffer":0,
			"byteLength":22512,
			"byteOffset":0,
			"target":34962
		},
		{
			"buffer":0,
			"byteLength":22512,
			"byteOffset":22512,
			"target":34962
		},
		{
			"buffer":0,
			"byteLength":15008,
			"byteOffset":45024,
			"target":34962
		},
		{
			"buffer":0,
			"byteLength":7504,
			"byteOffset":60032,
			"target":34962
		},
		{
			"buffer":0,
			"byteLength":15008,
			"byteOffset":67536,
			"target":34962
		},
		{
			"buffer":0,
			"byteLength":10536,
			"byteOffset":82544,
			"target":34963
		},
		{
			"buffer":0,
			"byteLength":1200,
			"byteOffset":93080,
			"target":34962
		},
		{
			"buffer":0,
			"byteLength":1200,
			"byteOffset":94280,
			"target":34962
		},
		{
			"buffer":0,
			"byteLength":800,
			"byteOffset":95480,
			"target":34962
		},
		{
			"buffer":0,
			"byteLength":400,
			"byteOffset":96280,
			"target":34962
		},
		{
			"buffer":0,
			"byteLength":800,
			"byteOffset":96680,
			"target":34962
		},
		{
			"buffer":0,
			"byteLength":972,
			"byteOffset":97480,
			"target":34963
		}
	],
	"samplers":[
		{
			"magFilter":9729,
			"minFilter":9987
		}
	],
	"buffers":[
		{
			"byteLength":98452,
			"uri":"Television_01_4k.bin"
		}
	]
}
